<svg width="300.000000pt" height="300.000000pt" viewBox="0 0 300.000000 300.000000" xmlns="http://www.w3.org/2000/svg">
  <g transform="translate(0.000000,300.000000) scale(0.100000,-0.100000)" fill="#fefefe" stroke="none">
    <path d="M0 1500 c0 -1500 0 -1500 1500 -1500 1500 0 1500 0 1500 1500 0 1500
0 1500 -1500 1500 -1500 0 -1500 0 -1500 -1500z m2659 951 c37 -68 -197 -393
-265 -367 -11 4 5 24 57 73 89 83 155 172 170 225 20 76 -12 62 -153 -69 -109
-101 -127 -106 -129 -39 -3 119 -59 124 -140 13 -44 -61 -40 -91 12 -82 48 8
79 -13 79 -54 0 -18 9 -31 30 -43 23 -13 30 -24 30 -49 0 -29 2 -31 28 -24
113 29 169 8 156 -60 -5 -31 -3 -36 19 -44 57 -22 38 -82 -38 -122 -44 -23
-44 -23 -38 -70 3 -26 0 -63 -7 -83 -11 -34 -10 -39 8 -52 72 -50 132 -304
132 -553 0 -176 -33 -183 -125 -25 -52 88 -61 84 -67 -29 -9 -159 -60 -252
-132 -242 -43 7 -43 7 -70 -48 -30 -62 -56 -81 -56 -42 0 31 -21 32 -61 4 -16
-11 -33 -18 -39 -14 -5 3 -28 1 -50 -6 -40 -12 -40 -12 -40 -224 0 -233 -2
-240 -60 -248 -19 -3 -94 -18 -167 -33 -155 -34 -141 -41 -149 79 -8 114 27
99 -286 126 -161 13 -223 22 -242 34 -19 13 -49 17 -119 17 -128 0 -142 13
-103 99 35 78 35 77 -31 96 -32 9 -67 19 -78 22 -38 10 -125 56 -125 66 0 5
-17 6 -39 2 -58 -10 -74 25 -79 168 -3 76 -8 107 -17 107 -29 0 -71 -179 -62
-271 4 -44 2 -59 -9 -63 -33 -13 -42 56 -23 175 11 61 10 71 -5 87 -46 52 20
463 104 650 35 76 37 92 10 99 -37 10 -12 111 65 263 36 71 33 84 -23 105
-184 68 -296 182 -278 281 16 83 77 81 170 -6 70 -66 86 -72 86 -35 0 119 92
117 160 -3 38 -68 45 -71 83 -42 30 24 46 25 53 5 8 -20 30 -19 62 4 177 125
647 177 980 106 110 -23 110 -23 114 31 6 89 63 83 128 -14 44 -64 43 -64 117
8 92 89 145 89 159 -2 9 -52 24 -49 97 18 117 105 176 134 196 95z" />
    <path d="M1990 2356 c0 -50 14 -79 46 -92 64 -27 70 -13 24 59 -29 46 -70 65
-70 33z" />
    <path d="M290 2270 c0 -83 54 -140 196 -207 119 -56 123 -56 168 16 44 72 45
56 -10 146 -65 106 -89 104 -90 -7 0 -104 0 -104 -108 0 -114 111 -156 124
-156 52z" />
    <path d="M1272 2295 c-205 -28 -421 -105 -441 -158 -5 -12 -38 -58 -74 -103
-158 -195 -249 -364 -198 -364 27 0 34 -15 15 -31 -64 -53 -155 -365 -171
-582 -9 -124 12 -118 56 16 67 203 161 389 213 421 25 16 34 -1 13 -24 -16
-17 -17 -25 -7 -40 15 -24 16 -57 2 -65 -15 -10 -13 -145 3 -145 30 0 55 30
62 77 4 27 15 68 26 92 27 61 42 42 23 -29 -20 -78 -18 -142 6 -173 25 -32 25
-37 0 -37 -13 0 -28 12 -38 30 -19 33 -33 37 -52 15 -38 -46 -80 3 -80 92 0
162 -71 8 -92 -197 -30 -302 -4 -451 56 -317 13 28 33 73 45 99 26 54 16 106
-34 180 -29 43 -32 61 -7 56 10 -2 33 -34 55 -77 20 -41 44 -79 52 -85 10 -7
20 -39 25 -79 17 -118 49 -144 70 -57 14 58 12 55 68 65 41 7 42 6 48 -24 6
-30 8 -30 58 -29 40 1 50 -1 48 -13 -7 -26 -24 -39 -56 -39 -18 0 -37 -5 -44
-12 -14 -14 -28 -3 -34 27 -6 34 -34 29 -57 -10 -15 -26 -26 -35 -37 -31 -9 3
-27 6 -40 6 -18 0 -29 9 -41 35 -29 60 -59 37 -70 -53 -6 -50 68 -86 252 -122
28 -6 73 -15 100 -20 92 -19 290 -38 305 -30 8 4 40 4 70 -1 122 -21 266 1
490 73 197 63 226 80 244 136 39 120 46 270 17 377 -32 115 -32 115 -55 115
-11 0 -48 12 -81 25 -77 32 -75 32 -75 -18 0 -57 -3 -59 -57 -35 -34 15 -58
19 -90 14 -49 -7 -60 12 -19 34 23 12 45 11 104 -6 22 -6 23 -4 21 35 -4 63 8
66 85 26 119 -62 137 -45 96 89 -22 71 -18 103 7 66 21 -30 43 -103 53 -175 5
-33 21 -94 36 -135 34 -91 38 -239 10 -354 -19 -79 -17 -83 23 -66 41 17 80
176 81 335 0 22 4 47 10 55 17 28 23 -18 17 -137 -5 -114 -5 -114 24 -108 18
4 29 3 29 -4 0 -6 7 -11 15 -11 38 0 32 217 -10 350 -39 125 -40 130 -22 130
9 0 34 -37 62 -92 174 -339 185 -349 185 -184 0 263 -91 564 -144 478 -8 -13
-68 -5 -77 10 -14 21 -10 83 7 154 19 76 22 71 -53 91 -71 18 -83 27 -83 63 0
29 -15 40 -55 40 -30 0 -55 35 -55 77 0 36 -5 38 -46 23 -62 -24 -82 16 -44
90 25 50 26 48 -16 94 -68 78 -447 120 -732 81z m-112 -900 c50 -73 172 -155
230 -155 27 0 26 26 -5 102 -34 84 -25 116 13 48 22 -38 38 -38 46 0 9 46 30
36 59 -27 39 -82 46 -89 100 -97 41 -6 72 -36 37 -36 -5 0 -10 -6 -10 -14 0
-26 -21 -29 -51 -7 -15 11 -42 21 -59 21 -30 0 -43 24 -18 32 10 4 10 10 1 31
-16 35 -43 36 -43 1 0 -31 -46 -94 -69 -94 -34 0 -138 59 -192 108 -83 76
-108 52 -55 -51 23 -47 19 -70 -10 -46 -30 25 -73 180 -60 215 12 31 54 15 86
-31z m-269 -64 c31 -50 42 -60 73 -65 20 -3 52 -9 71 -12 43 -8 44 -19 4 -40
-29 -14 -35 -14 -73 0 -22 8 -53 12 -67 10 -27 -6 -54 16 -31 24 19 6 14 41
-13 80 -14 20 -25 42 -25 49 0 29 27 8 61 -46z m689 -299 c6 -116 4 -132 -15
-132 -20 0 -37 235 -18 254 17 17 28 -24 33 -122z m-562 -7 c3 -112 -8 -152
-28 -101 -11 30 -14 199 -3 210 20 20 28 -9 31 -109z m437 -172 c-32 -128
-200 -176 -221 -62 -4 19 -11 39 -16 46 -23 29 142 55 185 29 14 -9 20 -7 28
7 14 24 32 10 24 -20z m290 -5 c38 17 50 15 62 -11 12 -25 1 -58 -11 -38 -13
20 -45 11 -66 -20 -20 -28 -24 -29 -39 -15 -24 22 -32 20 -57 -11 -28 -34 -40
-25 -49 38 -7 46 8 78 21 45 8 -22 36 -20 57 4 14 17 20 18 36 8 15 -9 25 -9
46 0z" />
    <path d="M1288 833 c-48 -7 -28 -73 22 -73 31 0 90 43 90 66 0 14 -46 17 -112
7z" />
    <path d="M2056 2118 c-27 -39 -21 -51 22 -44 20 3 45 6 55 6 20 0 23 30 5 48
-20 20 -65 14 -82 -10z" />
    <path d="M681 2066 c-24 -38 -27 -66 -8 -66 22 0 57 45 57 73 0 38 -24 34 -49
-7z" />
    <path d="M2226 2046 c-23 -36 -20 -46 12 -46 37 0 65 21 61 46 -6 30 -52 30
-73 0z" />
    <path d="M2150 1996 c0 -21 5 -26 26 -26 34 0 31 43 -3 48 -19 3 -23 -1 -23
-22z" />
    <path d="M2434 2006 c-7 -18 13 -56 29 -56 18 0 37 21 37 41 0 28 -56 41 -66
15z" />
    <path d="M2285 1935 c-48 -47 -8 -85 90 -85 22 0 18 28 -5 40 -13 7 -20 21
-20 40 0 38 -30 41 -65 5z" />
    <path d="M2430 1892 c0 -66 30 -84 81 -49 45 30 51 57 11 57 -16 0 -44 3 -61
6 -27 6 -31 4 -31 -14z" />
    <path d="M2391 1733 c-26 -92 4 -132 33 -46 21 62 21 83 -4 83 -14 0 -22 -11
-29 -37z" />
    <path d="M2306 824 c-9 -24 -7 -34 8 -34 13 0 26 20 26 41 0 15 -27 10 -34 -7z" />
    <path d="M1755 564 c-60 -18 -148 -39 -195 -45 -188 -25 -370 -78 -370 -108 0
-14 22 -18 158 -29 86 -7 196 -18 243 -24 125 -16 206 29 279 157 55 96 48
100 -115 49z" />
    <path d="M881 509 c-44 -71 -46 -69 97 -69 127 0 160 6 280 47 55 19 71 51 22
45 -52 -6 -149 -1 -237 13 -130 21 -126 22 -162 -36z" />
    <path d="M1875 464 c-35 -53 -112 -118 -161 -136 -37 -13 -40 -19 -23 -50 16
-29 -5 -47 -23 -19 -24 39 -38 25 -38 -40 0 -62 0 -62 43 -55 111 18 229 51
235 65 3 9 9 18 13 21 4 3 11 51 15 107 11 159 -7 190 -61 107z" />
  </g>
  <g transform="translate(0.000000,300.000000) scale(0.100000,-0.100000)" fill="#542b12" stroke="none">
    <path d="M2585 2465 c-40 -21 -80 -53 -148 -115 -49 -44 -57 -49 -57 -31 0
120 -98 128 -198 15 -48 -53 -48 -53 -61 -23 -56 126 -171 147 -171 31 0 -40
0 -40 -62 -25 -324 76 -775 37 -1005 -87 -54 -29 -73 -35 -73 -24 0 26 -30 28
-63 4 -17 -13 -32 -19 -34 -14 -48 144 -188 192 -208 73 -7 -40 -7 -40 -70 19
-141 133 -255 44 -159 -124 33 -59 231 -184 291 -184 10 0 6 -14 -12 -49 -60
-119 -109 -271 -88 -271 32 0 31 -49 -3 -131 -84 -208 -141 -602 -95 -648 11
-11 18 -21 16 -23 -9 -9 -25 -173 -19 -203 11 -59 59 -52 50 8 -7 45 21 207
47 281 14 37 14 35 19 -80 6 -147 23 -194 67 -194 16 0 32 4 35 9 3 4 17 6 30
4 21 -4 26 0 31 23 22 98 37 118 57 77 21 -44 63 -45 54 -1 -4 18 -11 60 -16
92 -6 33 -17 67 -26 77 -8 9 -32 50 -53 91 -31 60 -42 74 -64 76 -37 4 -36
-23 3 -84 56 -89 56 -98 4 -210 -39 -85 -47 -96 -56 -80 -17 30 -22 183 -9
275 8 62 8 87 0 98 -12 14 21 120 61 193 19 35 19 35 20 -25 1 -99 38 -138 95
-101 23 15 25 15 36 -7 14 -27 28 -37 52 -37 22 0 23 42 1 61 -13 11 -15 26
-10 84 12 136 13 130 -8 130 -25 0 -44 -52 -45 -121 -1 -51 -31 -78 -63 -57
-14 8 -8 99 7 119 17 23 19 66 4 81 -8 8 -8 13 0 17 16 10 13 46 -4 53 -47 18
-133 -137 -237 -427 -48 -135 -48 -135 -43 -65 20 232 117 574 174 609 20 13
13 56 -10 56 -43 0 39 145 186 330 28 36 54 76 58 90 36 145 626 253 989 180
186 -37 250 -84 208 -152 -44 -72 -18 -130 49 -109 53 15 51 16 51 -34 0 -50
19 -65 79 -65 25 0 27 -3 23 -35 -5 -39 19 -55 101 -70 49 -9 50 -12 32 -87
-33 -139 -21 -170 60 -166 59 3 59 3 91 -72 39 -90 62 -219 70 -389 6 -148 -5
-138 -143 132 -65 127 -79 147 -99 147 -31 0 -31 -19 1 -104 50 -132 65 -304
35 -380 -8 -20 -9 -20 -9 3 -1 20 -5 23 -31 19 -31 -5 -31 -5 -28 81 3 80 2
86 -17 86 -18 0 -21 -11 -32 -100 -18 -147 -31 -193 -59 -212 -33 -21 -34 -18
-18 57 28 132 11 353 -32 418 -9 13 -17 49 -19 80 -5 83 -36 166 -63 170 -27
4 -29 -25 -9 -84 40 -114 31 -123 -71 -74 -93 44 -112 41 -112 -14 0 -43 0
-43 -45 -33 -55 13 -95 -2 -95 -34 0 -19 4 -21 33 -16 22 3 49 -2 76 -14 75
-33 95 -27 89 26 -3 25 -4 45 -3 45 2 0 24 -9 50 -20 26 -11 61 -20 79 -20 98
0 113 -471 17 -539 -28 -20 -280 -108 -401 -139 -62 -16 -102 -19 -223 -17
-137 2 -147 1 -147 -16 0 -10 5 -21 11 -24 28 -18 -186 -76 -303 -82 -121 -6
-175 6 -134 29 9 5 25 26 36 47 19 38 19 38 97 25 143 -25 261 -30 269 -10 10
26 3 28 -118 42 -128 15 -218 33 -365 75 -123 35 -143 36 -143 10 0 -21 62
-49 157 -72 63 -15 68 -21 48 -59 -9 -17 -14 -38 -11 -46 3 -8 -1 -14 -9 -14
-24 0 -18 -47 7 -64 17 -12 48 -16 120 -16 54 0 98 -4 98 -9 0 -16 29 -20 278
-42 136 -11 248 -22 249 -23 2 -1 6 -47 10 -102 9 -117 0 -114 209 -70 71 15
139 29 150 32 28 5 34 50 34 273 0 191 4 201 88 201 11 0 37 9 56 21 36 21 36
21 36 -1 0 -41 42 -20 71 35 14 28 27 49 30 48 58 -25 87 -11 122 58 32 63 52
179 43 254 -6 50 -6 50 28 -13 120 -220 172 -207 162 38 -10 279 -73 520 -136
520 -16 0 -17 3 -3 41 9 27 11 57 7 85 -6 41 -5 44 22 54 85 32 119 150 44
150 -12 0 -14 10 -12 50 5 67 -71 93 -160 55 -14 -5 -18 -2 -18 15 0 32 -18
60 -40 60 -15 0 -19 8 -22 37 -4 49 -42 73 -87 56 -58 -21 -32 49 40 111 64
55 73 48 81 -64 5 -59 40 -53 118 21 75 72 161 141 167 135 18 -18 -64 -140
-156 -231 -77 -76 -89 -105 -44 -105 56 0 236 220 248 304 14 90 -12 116 -80
81z m-535 -149 c37 -55 37 -57 0 -44 -33 11 -50 34 -50 67 0 33 16 25 50 -23z
m-1621 -101 c112 -108 137 -113 127 -25 -7 57 3 100 23 100 8 0 89 -121 94
-140 7 -27 -68 -121 -92 -115 -107 25 -263 137 -279 199 -25 92 18 86 127 -19z
m1705 -104 c27 -28 27 -28 2 -24 -14 3 -39 0 -56 -5 -37 -13 -40 1 -8 35 27
29 29 29 62 -6z m-1414 -49 c-19 -33 -60 -77 -60 -64 0 20 51 92 61 86 5 -3 5
-13 -1 -22z m1568 -20 c2 -7 -12 -19 -34 -28 -21 -9 -43 -23 -50 -32 -13 -18
-44 -10 -44 13 0 10 10 15 30 15 24 0 33 6 40 26 11 27 49 31 58 6z m197 -42
c7 -11 -11 -40 -24 -40 -3 0 -11 11 -18 25 -12 26 27 40 42 15z m-143 -75 c-4
-30 -1 -36 22 -45 14 -5 26 -15 26 -21 0 -6 -7 -8 -17 -4 -10 3 -39 11 -65 16
-43 10 -47 12 -37 30 7 14 63 58 74 59 1 0 -1 -16 -3 -35z m176 -31 c28 -6 16
-26 -28 -49 -26 -13 -28 -12 -39 11 -23 51 -16 55 67 38z m-97 -186 c-19 -61
-46 -97 -37 -49 14 79 27 114 38 103 8 -8 8 -23 -1 -54z m-551 -1167 c-76
-142 -155 -189 -294 -173 -55 6 -174 17 -262 24 -161 12 -161 12 -110 31 105
39 264 78 351 87 69 7 257 56 343 89 2 0 -11 -26 -28 -58z m46 -296 c-10 -16
-35 -26 -93 -39 -43 -10 -94 -22 -113 -27 -64 -16 -68 -14 -72 41 -3 48 6 66
18 35 13 -33 46 -17 42 19 -3 29 0 36 18 40 43 11 139 93 174 149 35 56 35 56
38 -70 2 -96 -1 -131 -12 -148z" />
    <path d="M1072 1373 c3 -58 11 -94 29 -129 41 -82 90 -65 51 18 -42 91 -37
113 13 60 52 -57 133 -106 199 -124 57 -15 91 13 103 86 7 48 28 22 25 -31 -2
-30 0 -33 25 -33 15 0 37 -7 47 -15 26 -20 66 -19 66 0 0 8 5 15 10 15 6 0 10
11 10 25 0 22 -4 25 -35 25 -41 0 -57 15 -101 97 -41 77 -82 84 -84 13 -1 -24
-2 -24 -17 8 -12 22 -24 32 -40 32 -30 0 -29 -11 7 -95 27 -65 28 -70 10 -73
-44 -7 -181 90 -231 165 -8 13 -29 25 -53 29 -39 7 -39 7 -34 -73z" />
    <path d="M827 1393 c-13 -12 -7 -39 18 -75 18 -27 23 -44 19 -66 -6 -29 -5
-30 42 -36 113 -16 149 -13 152 12 3 18 -1 22 -22 22 -14 0 -26 5 -26 10 0 6
-9 10 -21 10 -34 0 -55 17 -93 75 -35 51 -53 64 -69 48z" />
    <path d="M1530 1107 c0 -146 11 -207 38 -207 25 0 25 0 18 77 -3 42 -6 100 -6
130 0 50 -1 53 -25 53 -24 0 -25 -3 -25 -53z" />
    <path d="M980 1025 c0 -115 0 -116 23 -113 21 3 22 7 22 113 0 106 -1 110 -22
113 -23 3 -23 2 -23 -113z" />
    <path d="M1210 855 c0 -14 4 -25 9 -25 5 0 7 -9 4 -20 -7 -26 15 -78 38 -90
66 -36 199 50 199 129 0 24 -31 42 -38 22 -14 -43 -115 -123 -131 -104 -40 48
-32 62 37 65 61 3 67 5 70 26 3 21 1 22 -92 22 -96 0 -96 0 -96 -25z" />
  </g>
  <g transform="translate(0.000000,300.000000) scale(0.100000,-0.100000)" fill="#f3ebe3" stroke="none">
    <path d="M2557 2449 c-43 -28 -65 -49 -53 -49 3 0 25 14 49 30 25 17 50 30 56
30 6 0 11 5 11 10 0 16 -14 12 -63 -21z" />
    <path d="M2648 2469 c6 -7 12 -26 12 -43 0 -23 3 -27 12 -18 15 15 0 63 -22
70 -12 4 -13 2 -2 -9z" />
    <path d="M2252 2399 c-18 -12 -31 -23 -29 -25 5 -5 76 30 77 39 0 12 -13 8
-48 -14z" />
    <path d="M2320 2410 c0 -5 6 -10 14 -10 8 0 17 -13 21 -30 4 -16 11 -30 16
-30 6 0 7 10 3 23 -11 39 -54 76 -54 47z" />
    <path d="M2573 2405 c-7 -7 -18 -15 -25 -18 -7 -2 -10 -8 -6 -12 5 -5 16 -1
25 7 55 47 59 14 8 -62 -26 -39 -45 -90 -22 -59 24 31 67 110 72 129 7 29 -30
40 -52 15z" />
    <path d="M2068 2365 c23 -27 45 -59 48 -72 8 -29 28 -30 48 -1 23 33 19 47 -5
18 -19 -22 -22 -23 -30 -8 -20 37 -75 102 -89 106 -8 3 5 -17 28 -43z" />
    <path d="M2435 2350 c-22 -22 -45 -38 -52 -36 -8 3 -13 -3 -13 -15 0 -11 4
-19 9 -17 11 4 111 97 111 103 0 14 -20 1 -55 -35z" />
    <path d="M2650 2375 c0 -21 -33 -84 -59 -114 -12 -13 -21 -29 -21 -35 1 -25
80 93 95 142 4 13 2 22 -4 22 -6 0 -11 -7 -11 -15z" />
    <path d="M2309 2353 c5 -10 12 -27 16 -37 9 -30 18 -11 10 23 -4 17 -13 31
-21 31 -10 0 -12 -5 -5 -17z" />
    <path d="M272 2343 c-23 -20 -39 -63 -23 -63 5 0 11 10 13 23 2 12 13 26 26
32 12 5 22 13 22 17 0 13 -17 9 -38 -9z" />
    <path d="M320 2350 c0 -5 8 -10 19 -10 10 0 30 -10 45 -21 15 -12 29 -19 32
-16 7 7 -67 57 -83 57 -7 0 -13 -4 -13 -10z" />
    <path d="M2454 2306 c-32 -30 -55 -58 -51 -62 4 -5 36 20 70 54 76 76 62 82
-19 8z" />
    <path d="M555 2340 c-4 -6 6 -10 24 -10 35 0 44 -9 94 -89 33 -55 67 -80 67
-50 0 6 -6 9 -13 6 -9 -3 -25 17 -46 54 -44 81 -105 123 -126 89z" />
    <path d="M1990 2325 c0 -23 19 -55 32 -55 9 0 9 3 0 12 -7 7 -12 20 -12 29 0
10 -4 21 -10 24 -5 3 -10 -1 -10 -10z" />
    <path d="M2040 2338 c0 -4 9 -23 21 -43 20 -33 20 -35 3 -29 -15 6 -16 4 -7
-6 12 -14 33 -6 33 13 -1 13 -50 77 -50 65z" />
    <path d="M512 2305 c-15 -32 -15 -45 -2 -45 6 0 10 9 10 19 0 11 5 23 10 26
12 8 13 25 2 25 -5 0 -14 -11 -20 -25z" />
    <path d="M1500 2310 c0 -6 27 -10 60 -10 33 0 60 4 60 10 0 6 -27 10 -60 10
-33 0 -60 -4 -60 -10z" />
    <path d="M550 2281 c-13 -25 -13 -91 0 -91 6 0 10 19 10 43 0 24 5 48 12 55 9
9 9 12 0 12 -6 0 -16 -9 -22 -19z" />
    <path d="M995 2284 c-22 -8 -44 -20 -50 -26 -7 -8 -5 -9 6 -5 10 3 35 11 58
18 23 7 41 16 41 21 0 11 -7 10 -55 -8z" />
    <path d="M600 2275 c0 -2 18 -33 39 -68 39 -64 39 -64 9 -111 -17 -26 -29 -49
-26 -51 11 -11 67 95 60 113 -18 43 -82 135 -82 117z" />
    <path d="M982 2230 c-41 -16 -82 -36 -91 -44 -10 -9 -21 -16 -24 -16 -13 0
-47 -35 -47 -48 0 -7 -7 -20 -15 -28 -8 -9 -15 -20 -15 -26 0 -18 27 10 44 46
16 35 107 90 191 116 22 7 44 16 50 21 17 17 -19 9 -93 -21z" />
    <path d="M1967 2231 c15 -16 30 -24 32 -18 2 6 -6 19 -19 29 -35 28 -44 21
-13 -11z" />
    <path d="M240 2238 c0 -22 40 -95 65 -118 36 -34 40 -20 5 17 -16 17 -35 50
-42 72 -12 39 -28 55 -28 29z" />
    <path d="M866 2224 c-35 -24 -40 -25 -48 -10 -9 16 -28 22 -28 9 2 -33 29 -45
57 -25 15 10 38 23 51 26 12 4 22 12 22 17 0 15 -13 11 -54 -17z" />
    <path d="M291 2229 c-2 -50 110 -138 238 -189 89 -35 68 -16 -42 38 -98 48
-146 86 -184 148 -10 16 -12 16 -12 3z" />
    <path d="M2330 2232 c0 -16 40 -26 53 -13 8 8 7 11 -5 11 -9 0 -23 3 -32 6 -9
3 -16 1 -16 -4z" />
    <path d="M2442 2168 c-68 -64 -85 -98 -51 -98 6 0 9 7 5 15 -5 14 7 31 42 58
28 21 86 86 81 91 -2 2 -37 -27 -77 -66z" />
    <path d="M2160 2216 c0 -8 5 -18 10 -21 13 -8 50 4 50 16 0 6 -9 7 -20 4 -11
-4 -20 -2 -20 4 0 6 -4 11 -10 11 -5 0 -10 -6 -10 -14z" />
    <path d="M2481 2139 c-24 -27 -50 -49 -57 -49 -8 0 -14 -4 -14 -10 0 -5 4 -10
9 -10 13 0 121 100 121 111 0 17 -15 6 -59 -42z" />
    <path d="M550 2162 c0 -22 -24 -30 -35 -12 -3 6 -11 10 -17 10 -6 0 -3 -9 7
-20 11 -12 28 -20 39 -18 23 3 34 34 17 51 -8 8 -11 5 -11 -11z" />
    <path d="M757 2162 c-21 -22 -21 -32 -4 -32 14 0 47 31 47 43 0 14 -27 7 -43
-11z" />
    <path d="M2063 2128 c-27 -30 -39 -68 -21 -68 25 0 58 12 58 21 0 5 -12 6 -27
3 -27 -7 -27 -7 -12 17 19 28 44 36 64 19 16 -14 21 -35 6 -25 -5 3 -12 1 -16
-5 -3 -5 -2 -10 4 -10 5 0 16 -3 25 -6 24 -9 20 21 -6 51 -27 31 -48 32 -75 3z" />
    <path d="M2290 2125 c0 -8 9 -15 20 -15 10 0 23 -8 29 -17 5 -10 13 -15 16
-11 10 10 -3 26 -36 43 -26 14 -29 14 -29 0z" />
    <path d="M2190 2110 c0 -11 6 -20 13 -20 7 0 13 9 14 20 1 11 -4 20 -13 20 -8
0 -14 -9 -14 -20z" />
    <path d="M1990 2086 c-9 -24 -3 -66 9 -66 3 0 6 20 6 45 0 52 -2 54 -15 21z" />
    <path d="M350 2085 c0 -9 131 -77 137 -71 8 8 7 9 -66 45 -65 32 -71 34 -71
26z" />
    <path d="M672 2050 c-12 -16 -22 -36 -22 -45 0 -20 30 -19 46 3 20 26 16 37
-6 17 -24 -22 -26 -8 -4 23 24 35 11 36 -14 2z" />
    <path d="M2227 2063 c-4 -3 -7 -15 -7 -25 0 -13 -7 -18 -27 -18 -21 0 -24 -3
-15 -12 16 -16 15 -28 -3 -28 -8 0 -15 -4 -15 -10 0 -21 37 -9 50 18 8 15 23
39 33 55 17 25 5 41 -16 20z" />
    <path d="M2383 2048 c-13 -6 -23 -15 -23 -20 0 -5 6 -7 13 -4 6 3 20 9 30 12
9 4 17 10 17 15 0 11 -9 10 -37 -3z" />
    <path d="M2490 2051 c0 -5 9 -11 20 -14 11 -3 20 -12 20 -21 0 -9 5 -16 10
-16 16 0 12 18 -10 40 -21 21 -40 26 -40 11z" />
    <path d="M760 2043 c0 -5 -11 -21 -25 -37 -14 -16 -25 -34 -25 -40 0 -12 69
64 70 77 0 4 -4 7 -10 7 -5 0 -10 -3 -10 -7z" />
    <path d="M2058 2033 c-10 -2 -18 -9 -18 -14 0 -11 3 -11 34 1 23 8 26 7 26
-10 0 -11 5 -20 10 -20 6 0 10 11 10 25 0 25 -16 30 -62 18z" />
    <path d="M2420 2012 c0 -40 38 -80 58 -60 17 17 15 33 -2 19 -12 -10 -17 -8
-25 8 -12 22 -1 34 23 25 9 -3 16 -1 16 5 0 6 -16 11 -35 11 -19 0 -35 -4 -35
-8z" />
    <path d="M510 2006 c0 -4 14 -12 30 -17 37 -13 37 -16 -1 -90 -17 -34 -28 -64
-25 -67 7 -7 4 -11 44 71 38 81 39 83 8 91 -13 3 -31 9 -40 12 -9 3 -16 3 -16
0z" />
    <path d="M2527 1968 c-7 -25 -1 -38 18 -38 8 0 21 -10 29 -22 17 -24 30 -20
20 6 -4 10 -18 22 -31 27 -18 7 -23 14 -18 29 3 11 2 20 -3 20 -5 0 -12 -10
-15 -22z" />
    <path d="M634 1964 c3 -8 2 -12 -4 -9 -8 5 -40 -43 -40 -60 0 -17 28 0 48 30
26 41 28 55 6 55 -10 0 -14 -5 -10 -16z" />
    <path d="M2100 1972 c0 -4 7 -18 16 -30 15 -22 44 -30 44 -12 0 6 -7 10 -16
10 -9 0 -18 9 -21 20 -5 19 -23 29 -23 12z" />
    <path d="M657 1900 c-20 -27 -37 -54 -37 -60 0 -5 -3 -10 -7 -10 -5 0 -13 -10
-20 -23 -6 -12 -23 -44 -37 -72 -33 -64 -33 -77 -1 -69 33 8 32 -2 -10 -72
-19 -32 -35 -61 -35 -66 0 -18 11 -6 31 35 12 23 31 52 42 65 24 25 14 58 -17
56 -9 -1 -16 0 -16 2 0 13 59 119 102 183 56 84 60 104 5 31z" />
    <path d="M2194 1915 c25 -19 36 -19 36 0 0 10 -10 15 -27 15 -27 -1 -27 -1 -9
-15z" />
    <path d="M2255 1899 c-8 -25 -8 -25 29 -35 21 -5 27 -4 22 5 -4 6 -14 11 -22
11 -11 0 -13 6 -9 20 3 11 2 20 -4 20 -5 0 -13 -9 -16 -21z" />
    <path d="M2426 1904 c-3 -9 -3 -20 0 -23 4 -3 9 -1 11 5 2 8 18 10 43 7 26 -4
40 -2 40 6 0 6 -10 11 -22 11 -13 0 -33 3 -44 6 -15 4 -23 0 -28 -12z" />
    <path d="M2340 1900 c0 -5 9 -14 20 -20 11 -6 18 -15 15 -21 -4 -5 1 -9 9 -9
27 0 18 28 -14 44 -16 8 -30 10 -30 6z" />
    <path d="M2510 1859 c-19 -16 -30 -29 -25 -29 14 0 71 47 65 53 -3 3 -21 -8
-40 -24z" />
    <path d="M2580 1869 c0 -5 -15 -23 -32 -40 -18 -16 -27 -29 -21 -29 14 0 73
58 73 71 0 5 -4 9 -10 9 -5 0 -10 -5 -10 -11z" />
    <path d="M2210 1860 c0 -4 6 -12 13 -18 18 -14 57 -25 57 -15 -1 10 -70 43
-70 33z" />
    <path d="M2295 1823 c15 -15 65 -25 65 -13 0 5 -6 10 -12 10 -7 0 -24 3 -38 6
-17 5 -22 3 -15 -3z" />
    <path d="M485 1774 c-22 -52 -29 -84 -19 -84 10 0 47 110 40 117 -3 3 -12 -12
-21 -33z" />
    <path d="M2396 1765 c-11 -29 -6 -41 9 -21 8 10 19 15 26 11 7 -5 10 -3 7 6
-7 20 -34 23 -42 4z" />
    <path d="M2420 1713 c-20 -56 -29 -70 -29 -50 -2 30 -21 18 -21 -13 0 -40 23
-39 43 3 19 40 31 87 23 87 -4 0 -11 -12 -16 -27z" />
    <path d="M2466 1658 c-8 -33 -9 -32 24 -66 17 -18 30 -39 30 -47 0 -8 5 -15
10 -15 6 0 10 3 10 8 0 13 -50 82 -60 82 -6 0 -6 10 0 26 12 31 12 34 1 34 -5
0 -11 -10 -15 -22z" />
    <path d="M2427 1579 c-10 -6 -34 -9 -53 -7 -28 3 -52 -9 -26 -13 36 -7 79 -6
90 3 9 8 16 6 27 -8 12 -15 14 -16 15 -3 0 31 -24 45 -53 28z" />
    <path d="M462 1529 c-27 -63 -35 -89 -25 -89 9 0 55 121 48 128 -2 3 -13 -15
-23 -39z" />
    <path d="M2485 1513 c5 -10 16 -39 25 -66 19 -52 30 -69 30 -45 0 26 -42 128
-52 128 -6 0 -7 -8 -3 -17z" />
    <path d="M2025 1510 c-3 -5 3 -10 14 -10 15 0 23 -10 32 -40 10 -34 29 -55 29
-33 0 43 -59 109 -75 83z" />
    <path d="M631 1473 c-37 -45 -105 -172 -97 -180 3 -4 7 -4 9 -2 1 2 19 39 41
81 21 42 52 90 68 107 17 17 26 31 20 31 -6 0 -24 -17 -41 -37z" />
    <path d="M2545 1489 c16 -51 26 -72 31 -66 8 8 -15 75 -28 83 -7 4 -8 -2 -3
-17z" />
    <path d="M486 1469 c-19 -48 -30 -96 -18 -84 12 13 43 107 37 113 -3 3 -11
-10 -19 -29z" />
    <path d="M2023 1466 c3 -8 11 -34 18 -57 13 -46 29 -73 29 -49 0 25 -34 120
-43 120 -5 0 -7 -6 -4 -14z" />
    <path d="M1072 1448 c-15 -15 -16 -74 -2 -83 6 -4 10 10 10 35 0 48 37 49 77
1 13 -14 23 -21 23 -16 0 38 -84 87 -108 63z" />
    <path d="M687 1409 c4 -21 1 -34 -8 -39 -26 -17 -25 -137 2 -145 14 -5 25 -3
27 4 2 6 10 11 17 11 13 0 25 30 25 65 0 26 -17 7 -22 -24 -1 -13 -13 -30 -25
-39 -29 -18 -35 81 -8 122 12 18 13 30 6 50 -14 36 -22 33 -14 -5z" />
    <path d="M777 1433 c-13 -12 -7 -25 9 -19 14 5 15 1 9 -30 -4 -24 -3 -34 4
-29 6 3 11 12 11 19 0 7 8 13 18 13 18 0 52 -25 52 -39 0 -5 9 -18 20 -30 28
-30 25 -15 -7 35 -32 48 -43 58 -60 53 -6 -3 -13 4 -16 15 -5 19 -27 26 -40
12z" />
    <path d="M1350 1425 c-10 -12 -10 -19 -2 -27 9 -9 12 -8 12 5 0 30 26 18 39
-18 13 -36 41 -48 41 -18 0 9 -3 14 -6 10 -4 -3 -16 8 -28 25 -26 38 -39 44
-56 23z" />
    <path d="M1472 1423 c3 -5 10 -23 17 -40 11 -27 31 -46 31 -28 0 13 -35 75
-43 75 -5 0 -7 -3 -5 -7z" />
    <path d="M2094 1397 c3 -10 6 -27 6 -38 0 -10 5 -19 11 -19 13 0 3 50 -13 65
-8 7 -9 4 -4 -8z" />
    <path d="M751 1376 c-6 -16 -10 -34 -8 -40 3 -6 10 2 16 18 6 16 10 34 8 40
-3 6 -10 -2 -16 -18z" />
    <path d="M2302 1377 c-8 -9 -2 -39 20 -107 44 -137 40 -128 45 -108 2 9 -10
57 -26 106 -17 49 -31 92 -31 96 0 14 31 5 37 -11 12 -31 45 -84 50 -79 6 6
-33 80 -52 100 -20 19 -29 20 -43 3z" />
    <path d="M1110 1359 c0 -14 5 -19 14 -16 7 3 19 0 25 -6 15 -15 13 4 -3 26
-18 23 -36 22 -36 -4z" />
    <path d="M1858 1355 c-9 -19 -9 -28 0 -37 9 -9 12 -6 12 15 0 33 20 35 74 6
54 -29 56 -17 2 15 -56 33 -73 33 -88 1z" />
    <path d="M820 1362 c0 -4 11 -24 25 -44 27 -40 31 -58 14 -58 -32 0 -2 -45 31
-46 19 -1 54 -7 77 -14 24 -7 49 -9 60 -5 19 9 -21 20 -114 32 -44 5 -51 11
-32 30 7 7 0 26 -22 62 -31 50 -39 59 -39 43z" />
    <path d="M1370 1346 c0 -2 7 -20 16 -41 8 -21 13 -44 10 -51 -3 -8 1 -14 9
-14 19 0 19 5 -2 63 -14 37 -33 63 -33 43z" />
    <path d="M1076 1303 c4 -16 11 -32 17 -38 6 -7 8 -2 3 15 -3 14 -6 31 -6 38 0
6 -5 12 -10 12 -6 0 -8 -11 -4 -27z" />
    <path d="M1230 1320 c0 -5 4 -10 9 -10 5 0 16 -6 23 -12 23 -23 98 -60 111
-55 6 2 -6 12 -27 21 -22 9 -54 28 -72 41 -36 27 -44 30 -44 15z" />
    <path d="M1460 1314 c0 -8 4 -13 9 -9 6 3 15 -4 21 -15 7 -13 7 -20 0 -20 -5
0 -10 -4 -10 -10 0 -15 17 -12 23 4 8 19 -14 66 -30 66 -7 0 -13 -7 -13 -16z" />
    <path d="M1120 1311 c0 -20 23 -71 32 -71 6 0 7 -11 4 -25 -4 -14 -2 -25 3
-25 22 0 21 23 -5 75 -25 53 -34 65 -34 46z" />
    <path d="M1900 1300 c0 -11 5 -20 10 -20 6 0 10 4 10 9 0 5 26 -2 58 -15 63
-26 82 -29 82 -14 0 6 -9 10 -20 10 -11 0 -45 11 -76 25 -68 30 -64 30 -64 5z" />
    <path d="M1194 1292 c9 -15 86 -65 92 -60 3 3 -16 20 -41 37 -47 32 -60 38
-51 23z" />
    <path d="M1722 1280 c-24 -22 -27 -35 -13 -44 5 -3 12 5 15 19 4 14 13 25 21
25 8 0 15 5 15 10 0 16 -14 12 -38 -10z" />
    <path d="M2100 1279 c0 -6 9 -22 20 -36 11 -14 22 -40 26 -59 3 -19 11 -34 16
-34 11 0 4 25 -24 93 -19 43 -38 62 -38 36z" />
    <path d="M944 1271 c4 -6 20 -11 36 -11 15 0 30 -5 32 -11 3 -8 15 -9 37 -4
37 8 34 17 -6 21 -16 2 -45 6 -67 10 -28 5 -37 3 -32 -5z" />
    <path d="M516 1261 c-15 -23 -56 -144 -52 -149 3 -2 10 6 15 19 5 13 19 48 30
78 19 48 23 79 7 52z" />
    <path d="M1643 1245 c0 -25 11 -33 21 -16 7 11 -3 41 -14 41 -4 0 -7 -11 -7
-25z" />
    <path d="M1753 1253 c-24 -9 -13 -23 12 -17 13 3 39 1 56 -5 45 -16 50 -4 6
14 -37 15 -53 17 -74 8z" />
    <path d="M2085 1223 c4 -10 12 -36 18 -58 10 -42 27 -70 27 -45 0 25 -34 120
-43 120 -5 0 -6 -8 -2 -17z" />
    <path d="M780 1219 c0 -16 37 -56 44 -48 2 2 -7 18 -20 34 -16 20 -24 25 -24
14z" />
    <path d="M1300 1226 c0 -6 62 -36 75 -36 16 0 1 19 -19 24 -13 3 -31 9 -40 12
-9 3 -16 3 -16 0z" />
    <path d="M1569 1200 c25 -21 62 -24 68 -4 2 6 -8 11 -24 11 -15 0 -37 3 -48 7
-17 6 -16 4 4 -14z" />
    <path d="M2600 1191 c0 -17 5 -31 10 -31 6 0 10 11 10 24 0 14 -4 28 -10 31
-6 4 -10 -7 -10 -24z" />
    <path d="M740 1191 c0 -15 38 -56 45 -49 4 4 0 14 -9 23 -9 9 -16 21 -16 26 0
5 -4 9 -10 9 -5 0 -10 -4 -10 -9z" />
    <path d="M2261 1161 c-14 -25 -14 -51 -1 -51 6 0 11 10 11 23 1 16 2 18 6 5 6
-24 23 -23 23 1 0 31 -27 46 -39 22z" />
    <path d="M977 1144 c-11 -11 -8 -174 3 -174 6 0 10 34 10 81 0 77 1 80 21 74
15 -5 20 -3 17 6 -5 15 -40 24 -51 13z" />
    <path d="M1570 1081 c0 -41 4 -71 10 -71 6 0 10 28 10 64 0 36 -4 68 -10 71
-6 4 -10 -20 -10 -64z" />
    <path d="M575 1114 c-15 -15 -14 -18 2 -43 27 -40 63 -113 63 -127 0 -7 5 -16
11 -20 21 -12 0 47 -37 108 -39 64 -41 75 -16 80 11 2 13 6 5 11 -6 4 -19 0
-28 -9z" />
    <path d="M2471 1121 c-1 -20 82 -150 97 -151 8 0 12 22 12 80 0 97 -18 107
-22 13 -3 -68 -3 -68 -35 -13 -48 82 -52 88 -52 71z" />
    <path d="M2410 1096 c0 -19 5 -24 20 -23 21 1 24 6 14 31 -10 25 -34 19 -34
-8z" />
    <path d="M620 1103 c0 -16 71 -152 85 -163 8 -7 15 -21 15 -31 0 -11 5 -19 11
-19 15 0 2 52 -17 67 -8 6 -31 43 -49 82 -31 64 -45 84 -45 64z" />
    <path d="M357 1083 c-11 -10 -8 -53 3 -53 6 0 10 14 10 30 0 31 -2 35 -13 23z" />
    <path d="M442 1069 c-19 -51 -23 -69 -14 -69 10 0 36 79 28 87 -3 3 -9 -5 -14
-18z" />
    <path d="M2170 1005 c0 -48 4 -74 10 -70 6 3 10 35 10 70 0 35 -4 67 -10 70
-6 4 -10 -22 -10 -70z" />
    <path d="M2370 1015 c0 -19 5 -35 10 -35 6 0 10 16 10 35 0 19 -4 35 -10 35
-5 0 -10 -16 -10 -35z" />
    <path d="M2460 1043 c0 -11 62 -104 67 -100 4 4 -57 107 -63 107 -2 0 -4 -3
-4 -7z" />
    <path d="M390 980 c0 -29 4 -40 15 -40 8 0 15 4 15 9 0 5 3 17 7 27 4 12 3 15
-5 10 -8 -5 -12 0 -12 13 0 12 -4 21 -10 21 -5 0 -10 -18 -10 -40z" />
    <path d="M520 954 c0 -21 4 -33 10 -29 6 3 10 19 10 36 0 16 -4 29 -10 29 -5
0 -10 -16 -10 -36z" />
    <path d="M450 940 c-16 -38 -5 -53 11 -17 7 15 16 24 20 21 5 -3 9 2 9 10 0
27 -27 17 -40 -14z" />
    <path d="M975 933 c8 -36 20 -47 39 -40 22 9 20 29 -1 25 -12 -2 -19 4 -21 20
-2 12 -8 22 -14 22 -6 0 -8 -11 -3 -27z" />
    <path d="M1578 933 c-2 -20 -8 -27 -20 -25 -22 3 -24 -14 -3 -22 18 -7 45 19
45 44 0 31 -18 33 -22 3z" />
    <path d="M2365 923 c-6 -20 -9 -20 -22 -8 -17 17 -29 19 -38 5 -3 -5 4 -10 16
-10 18 0 20 -4 15 -27 -4 -16 -8 -36 -9 -45 -1 -9 -5 -16 -10 -15 -5 1 -11 -3
-14 -10 -5 -13 23 -11 36 3 15 17 43 102 38 116 -4 9 -8 6 -12 -9z" />
    <path d="M350 903 c1 -26 50 -63 50 -38 0 8 -7 15 -15 15 -8 0 -15 7 -15 15 0
8 -4 15 -10 15 -5 0 -10 -3 -10 -7z" />
    <path d="M2401 886 c-6 -16 -10 -34 -8 -40 3 -6 10 2 16 18 6 16 10 34 8 40
-3 6 -10 -2 -16 -18z" />
    <path d="M867 889 c-9 -5 -22 -7 -28 -4 -18 12 -37 -14 -50 -67 -12 -52 -39
-49 -39 3 0 10 -5 21 -11 25 -9 5 -10 -1 -5 -22 4 -16 10 -40 12 -54 12 -58
70 -57 100 2 12 24 18 27 30 17 12 -9 14 -7 14 15 0 30 -27 36 -37 9 -4 -10
-15 -27 -25 -37 -10 -11 -18 -23 -18 -28 0 -4 -5 -8 -11 -8 -11 0 -10 9 12 91
8 31 13 36 36 36 16 -1 34 1 42 4 9 2 18 -8 24 -29 10 -32 10 -32 58 -26 49 7
63 -3 37 -24 -14 -10 -69 -23 -105 -24 -13 0 -23 -4 -23 -9 0 -16 32 -23 51
-11 10 7 32 12 49 12 20 0 34 8 46 25 26 40 13 55 -46 51 -43 -3 -50 -1 -50
14 0 37 -33 57 -63 39z" />
    <path d="M1422 884 c-6 -11 -11 -13 -16 -5 -9 14 -63 15 -71 1 -4 -6 6 -10 24
-10 16 0 33 -4 36 -10 3 -5 1 -10 -5 -10 -7 0 -10 -7 -7 -15 15 -38 -83 -82
-103 -46 -14 28 -13 31 14 31 14 0 28 5 31 10 4 6 -10 10 -34 10 -46 0 -47 -3
-26 -54 21 -51 118 -23 142 42 20 50 46 59 39 12 -5 -35 -4 -42 5 -33 19 19
17 87 -3 91 -9 2 -21 -4 -26 -14z" />
    <path d="M1746 863 c-20 -11 -31 -12 -39 -4 -17 17 -34 13 -57 -11 -20 -21
-20 -21 -34 -2 -12 15 -18 17 -33 8 -20 -13 -20 -61 -1 -79 7 -7 9 1 5 28 -6
39 11 53 20 17 7 -28 28 -25 52 8 20 26 22 26 36 8 14 -19 25 -18 61 9 20 14
23 14 38 0 18 -18 21 -45 6 -45 -5 0 -10 5 -10 10 0 22 -36 9 -63 -22 -24 -30
-28 -31 -38 -15 -14 24 -30 21 -56 -10 -19 -23 -24 -26 -32 -13 -12 18 -26 7
-18 -15 10 -23 45 -18 63 10 15 23 18 24 34 10 24 -21 32 -19 62 17 21 27 29
31 39 21 32 -32 59 5 38 50 -14 32 -38 38 -73 20z" />
    <path d="M520 831 c0 -17 5 -31 10 -31 6 0 10 11 10 24 0 14 -4 28 -10 31 -6
4 -10 -7 -10 -24z" />
    <path d="M601 821 c-23 -45 -25 -51 -13 -51 10 0 44 81 38 88 -3 2 -14 -14
-25 -37z" />
    <path d="M2209 811 c-6 -15 -21 -33 -34 -39 -20 -9 -23 -9 -18 3 3 8 0 15 -7
15 -17 0 -8 -34 11 -38 21 -4 56 29 64 61 9 36 -3 35 -16 -2z" />
    <path d="M700 780 c11 -22 25 -40 30 -40 13 0 13 17 -1 25 -5 4 -14 18 -19 31
-5 13 -14 24 -20 24 -6 0 -1 -18 10 -40z" />
    <path d="M2107 813 c-2 -4 -10 -25 -16 -45 -14 -44 -54 -65 -216 -118 -89 -29
-135 -50 -110 -50 20 0 280 93 283 101 2 5 8 9 14 9 16 0 34 24 47 63 12 34
10 61 -2 40z" />
    <path d="M2370 809 c0 -16 -48 -59 -66 -59 -8 0 -13 -4 -10 -9 10 -16 46 1 71
34 27 35 30 45 15 45 -5 0 -10 -5 -10 -11z" />
    <path d="M1226 770 c10 -40 54 -80 54 -50 0 6 -7 10 -15 10 -8 0 -15 6 -15 13
0 7 -7 22 -16 33 -14 18 -15 18 -8 -6z" />
    <path d="M1390 759 c-19 -16 -30 -29 -25 -29 14 0 71 47 65 53 -3 3 -21 -8
-40 -24z" />
    <path d="M2214 698 c-26 -51 -59 -67 -48 -23 5 19 2 25 -9 25 -12 0 -15 -8
-12 -31 5 -38 9 -42 32 -35 20 6 69 83 60 93 -3 2 -13 -10 -23 -29z" />
    <path d="M400 698 c0 -24 16 -56 23 -48 3 3 2 20 0 38 -6 36 -23 44 -23 10z" />
    <path d="M580 694 c0 -8 21 -27 52 -47 31 -20 38 -21 38 -7 0 6 -5 10 -11 10
-7 0 -22 11 -35 25 -21 23 -44 33 -44 19z" />
    <path d="M660 683 c0 -8 55 -28 135 -50 44 -12 -2 15 -55 32 -30 10 -61 20
-67 23 -7 2 -13 0 -13 -5z" />
    <path d="M360 652 c0 -23 28 -44 48 -38 31 10 28 28 -3 20 -19 -5 -25 -2 -25
10 0 9 -4 16 -10 16 -5 0 -10 -4 -10 -8z" />
    <path d="M2004 644 c-18 -14 -18 -15 6 -8 14 4 33 7 43 6 9 0 17 3 17 9 0 15
-44 10 -66 -7z" />
    <path d="M1678 591 c-54 -15 -84 -31 -60 -31 26 0 132 34 132 42 0 10 -1 10
-72 -11z" />
    <path d="M1853 598 c-18 -6 -33 -15 -33 -20 0 -8 18 -5 58 9 69 27 -88 -171
-167 -209 -25 -12 -39 -24 -32 -26 36 -12 159 102 209 194 35 66 30 73 -35 52z" />
    <path d="M1291 571 c-7 -5 -22 -6 -32 -4 -10 3 -19 0 -19 -6 0 -12 18 -14 72
-5 21 4 35 10 32 15 -7 11 -35 11 -53 0z" />
    <path d="M1758 568 c-21 -6 -38 -14 -38 -20 0 -5 10 -6 23 -2 86 27 98 44 15
22z" />
    <path d="M892 533 c-9 -21 -23 -43 -31 -49 -8 -6 -12 -17 -9 -25 3 -9 17 5 38
39 18 28 39 52 47 52 8 0 11 5 8 10 -13 21 -36 9 -53 -27z" />
    <path d="M1663 540 c-13 -5 -23 -12 -23 -16 0 -8 53 5 65 17 12 12 -12 11 -42
-1z" />
    <path d="M1288 528 c6 -8 9 -18 5 -21 -3 -4 1 -7 11 -7 24 0 16 34 -9 39 -16
3 -17 1 -7 -11z" />
    <path d="M1195 520 c3 -5 17 -10 30 -10 13 0 27 5 30 10 4 6 -8 10 -30 10 -22
0 -34 -4 -30 -10z" />
    <path d="M1892 489 c-26 -48 -23 -65 4 -20 16 27 19 28 30 13 12 -15 13 -13
14 16 0 45 -22 41 -48 -9z" />
    <path d="M1510 510 c0 -5 11 -10 24 -10 14 0 28 5 31 10 4 6 -7 10 -24 10 -17
0 -31 -4 -31 -10z" />
    <path d="M1231 494 c-19 -8 -32 -16 -30 -19 8 -7 79 17 79 27 0 11 -9 10 -49
-8z" />
    <path d="M1403 497 c-50 -12 -59 -32 -10 -22 41 10 77 23 77 30 0 7 -15 5 -67
-8z" />
    <path d="M816 475 c-13 -20 -15 -30 -7 -38 8 -8 11 -5 11 10 0 12 5 23 12 25
6 2 9 10 7 17 -3 9 -11 4 -23 -14z" />
    <path d="M1288 468 c-21 -6 -38 -15 -38 -20 0 -6 8 -7 18 -3 9 3 29 9 45 12
15 3 30 10 33 14 6 11 -9 10 -58 -3z" />
    <path d="M870 440 c0 -6 37 -10 90 -10 53 0 90 4 90 10 0 6 -37 10 -90 10 -53
0 -90 -4 -90 -10z" />
    <path d="M1188 428 c-36 -12 -37 -38 -2 -38 15 0 23 4 19 11 -4 6 1 17 11 24
22 17 11 18 -28 3z" />
    <path d="M1036 389 c15 -25 104 -50 104 -29 0 6 -13 10 -29 10 -16 0 -36 7
-45 15 -17 17 -40 20 -30 4z" />
    <path d="M1280 390 c0 -5 14 -10 31 -10 17 0 28 4 24 10 -3 6 -17 10 -31 10
-13 0 -24 -4 -24 -10z" />
    <path d="M1390 380 c0 -5 14 -10 31 -10 17 0 28 4 24 10 -3 6 -17 10 -31 10
-13 0 -24 -4 -24 -10z" />
    <path d="M1928 354 c-5 -4 -8 -27 -8 -51 0 -23 -4 -43 -9 -43 -5 0 -11 -9 -14
-19 -3 -13 -17 -21 -46 -26 -37 -6 -68 -25 -42 -25 30 0 101 26 101 36 0 7 7
20 16 28 10 11 14 30 12 62 -2 25 -6 42 -10 38z" />
    <path d="M1445 330 c3 -5 17 -10 31 -10 13 0 24 5 24 10 0 6 -14 10 -31 10
-17 0 -28 -4 -24 -10z" />
    <path d="M1686 283 c6 -32 -9 -48 -19 -20 -2 6 -8 9 -13 4 -12 -11 22 -41 40
-34 20 8 21 37 1 63 -14 18 -14 17 -9 -13z" />
    <path d="M1580 221 c0 -17 5 -33 10 -36 6 -4 10 8 10 29 0 20 -4 36 -10 36 -5
0 -10 -13 -10 -29z" />
    <path d="M1960 211 c0 -11 -6 -21 -12 -24 -7 -2 -9 -8 -5 -13 5 -5 15 -1 23
10 16 23 18 46 4 46 -5 0 -10 -9 -10 -19z" />
    <path d="M1853 173 c-13 -2 -23 -9 -23 -15 0 -12 49 -2 65 13 9 9 -1 10 -42 2z" />
  </g>
  <g transform="translate(0.000000,300.000000) scale(0.100000,-0.100000)" fill="#614330" stroke="none">
    <path d="M2272 2359 c-18 -12 -31 -24 -28 -26 3 -3 15 2 28 11 31 22 45 20 51
-6 4 -12 9 -20 12 -16 7 7 -12 58 -22 58 -5 0 -23 -10 -41 -21z" />
    <path d="M2041 2330 c18 -22 33 -50 34 -62 2 -23 25 -39 25 -16 0 18 -68 118
-81 118 -5 0 5 -18 22 -40z" />
    <path d="M550 2337 c-13 -7 -26 -19 -28 -27 -4 -12 -2 -12 14 2 10 9 30 18 44
20 19 2 21 5 9 10 -9 3 -27 1 -39 -5z" />
    <path d="M2559 2292 c-39 -54 -46 -68 -30 -58 15 9 74 96 69 102 -2 2 -20 -18
-39 -44z" />
    <path d="M2426 2280 c-52 -53 -64 -58 -85 -37 -11 10 -13 9 -9 -3 11 -35 52
-22 108 35 30 30 50 55 45 55 -6 0 -32 -23 -59 -50z" />
    <path d="M302 2311 c-16 -10 -25 -58 -13 -65 7 -5 11 4 11 23 0 50 33 40 111
-36 38 -36 71 -64 74 -61 19 19 -159 154 -183 139z" />
    <path d="M1416 2311 c-3 -4 48 -8 113 -7 66 1 117 4 114 9 -6 10 -221 9 -227
-2z" />
    <path d="M244 2286 c-7 -31 11 -98 36 -128 26 -30 25 -18 -1 26 -12 21 -21 54
-21 81 -1 50 -5 56 -14 21z" />
    <path d="M2197 2288 c-49 -74 -44 -114 9 -89 15 6 24 14 21 17 -3 3 -14 1 -26
-5 -30 -17 -32 1 -5 49 26 45 26 68 1 28z" />
    <path d="M1013 2287 c-39 -15 -58 -32 -23 -22 44 14 70 24 70 30 0 7 -10 5
-47 -8z" />
    <path d="M878 2227 c-52 -32 -56 -33 -67 -15 -14 23 -32 23 -64 -2 -33 -26
-34 -26 -52 11 -9 17 -19 29 -21 26 -5 -5 35 -77 43 -77 3 0 19 12 35 26 33
27 63 19 38 -11 -30 -36 43 -5 150 64 41 26 -14 7 -62 -22z" />
    <path d="M985 2232 c-95 -38 -174 -91 -182 -122 -3 -14 -15 -35 -26 -47 -11
-13 -18 -25 -15 -29 7 -7 54 54 62 81 7 25 96 80 176 109 55 20 85 36 64 36
-5 -1 -41 -13 -79 -28z" />
    <path d="M1980 2233 c0 -6 13 -25 29 -42 23 -24 26 -33 16 -41 -8 -6 -18 -25
-24 -42 -13 -37 -11 -35 24 16 26 39 26 39 -2 70 -15 17 -31 35 -35 41 -5 5
-8 5 -8 -2z" />
    <path d="M640 2216 c0 -11 43 -76 47 -72 3 3 -5 21 -17 40 -20 33 -30 43 -30
32z" />
    <path d="M550 2157 c0 -9 -8 -17 -17 -17 -13 0 -14 -3 -5 -12 10 -9 16 -8 29
5 13 13 15 20 5 29 -9 9 -12 8 -12 -5z" />
    <path d="M2074 2139 c-4 -7 0 -9 14 -5 24 8 53 -19 63 -57 6 -20 7 -20 14 -4
15 36 -70 99 -91 66z" />
    <path d="M2190 2106 c0 -29 19 -44 31 -25 13 20 6 43 -14 47 -12 3 -17 -3 -17
-22z" />
    <path d="M2390 2115 c-28 -34 9 -58 46 -30 18 15 18 15 -8 9 -29 -6 -36 4 -16
24 8 8 8 12 1 12 -6 0 -16 -7 -23 -15z" />
    <path d="M680 2065 c-18 -26 -30 -48 -27 -51 2 -2 17 15 33 38 22 34 29 39 32
24 2 -10 -1 -23 -7 -29 -6 -6 -11 -16 -11 -21 1 -15 40 33 40 49 0 40 -29 35
-60 -10z" />
    <path d="M420 2095 c0 -8 82 -47 87 -41 3 2 -13 14 -36 25 -41 22 -51 25 -51
16z" />
    <path d="M2243 2070 c-13 -5 -23 -17 -23 -27 1 -17 1 -17 11 0 11 19 44 23 55
6 9 -15 -9 -30 -48 -38 -25 -5 -34 -13 -36 -31 -4 -25 -4 -25 18 -2 11 12 27
22 34 22 36 0 62 37 42 59 -21 23 -22 23 -53 11z" />
    <path d="M390 2065 c0 -8 122 -67 127 -61 3 2 -22 18 -56 35 -61 31 -71 35
-71 26z" />
    <path d="M1990 2043 c0 -27 29 -35 80 -22 27 7 50 16 50 21 0 11 0 10 -50 -7
-39 -14 -45 -14 -62 1 -10 10 -18 12 -18 7z" />
    <path d="M2420 2012 c0 -5 7 -23 16 -40 14 -28 14 -33 -1 -55 -14 -23 -14 -28
1 -61 18 -36 37 -46 50 -24 5 7 2 9 -8 6 -10 -4 -20 4 -31 27 -20 41 -13 47
39 35 50 -12 56 -12 49 0 -3 6 -22 10 -41 10 -28 0 -34 4 -34 20 0 12 -7 34
-15 49 -8 16 -11 31 -8 35 4 3 1 6 -5 6 -7 0 -12 -4 -12 -8z" />
    <path d="M673 2003 c-7 -3 -13 -11 -13 -18 0 -7 -7 -12 -16 -11 -9 0 -19 -6
-22 -14 -5 -13 -3 -13 13 0 27 21 -9 -39 -47 -81 -16 -17 -28 -38 -28 -47 0
-20 4 -15 74 87 58 85 61 92 39 84z" />
    <path d="M2302 1950 c-29 -18 -62 -64 -51 -74 2 -2 15 -7 29 -10 25 -7 25 -7
1 7 -25 15 -25 15 6 46 32 31 53 40 53 20 0 -5 5 -7 10 -4 14 9 12 35 -2 35
-7 0 -28 -9 -46 -20z" />
    <path d="M2520 1941 c0 -6 8 -11 18 -11 73 0 41 -98 -42 -130 -16 -6 -26 -13
-23 -16 10 -10 77 28 102 58 30 35 31 49 8 76 -21 23 -63 39 -63 23z" />
    <path d="M620 1850 c-18 -28 -30 -53 -28 -55 3 -3 19 18 37 46 17 28 30 53 28
56 -3 2 -19 -19 -37 -47z" />
    <path d="M512 1833 c-46 -90 -59 -169 -31 -194 21 -18 21 -18 -6 -86 -34 -83
-58 -161 -47 -148 5 6 21 44 36 85 15 41 33 86 40 99 14 24 1 62 -26 81 -9 7
6 64 33 127 19 45 20 73 1 36z" />
    <path d="M2350 1805 c6 -8 9 -23 5 -35 -9 -27 4 -26 14 3 9 22 -2 47 -21 47
-6 0 -5 -6 2 -15z" />
    <path d="M2422 1709 c-5 -13 -13 -35 -17 -49 -11 -38 10 -12 24 29 13 39 6 57
-7 20z" />
    <path d="M2476 1689 c-31 -98 -37 -107 -79 -115 -42 -8 -42 -8 -8 -12 18 -2
38 1 44 7 18 18 23 13 54 -56 54 -122 54 -123 48 -89 -5 23 -41 106 -73 169
-2 4 4 7 13 7 14 0 15 3 6 14 -8 9 -8 21 0 45 6 18 9 35 5 38 -3 3 -8 0 -10
-8z" />
    <path d="M2520 1548 c0 -8 48 -119 53 -125 8 -8 -7 43 -26 90 -13 30 -27 48
-27 35z" />
    <path d="M680 1495 c10 -12 10 -18 0 -30 -7 -9 -11 -18 -8 -21 8 -8 39 46 33
56 -3 6 -13 10 -22 10 -13 0 -13 -3 -3 -15z" />
    <path d="M2025 1500 c-7 -11 34 -145 42 -136 3 3 -2 26 -11 52 -20 61 -21 78
0 70 10 -4 14 -1 12 6 -6 17 -34 22 -43 8z" />
    <path d="M2075 1450 c13 -42 24 -70 29 -70 8 0 -15 74 -26 85 -7 7 -8 2 -3
-15z" />
    <path d="M600 1425 c-12 -20 -20 -38 -17 -41 2 -3 14 12 26 32 28 48 20 56 -9
9z" />
    <path d="M1350 1410 c0 -24 29 -84 36 -77 3 3 -2 19 -10 36 -19 37 -20 41 -3
41 7 0 21 -16 30 -35 17 -36 37 -47 37 -19 0 8 -4 13 -8 10 -4 -3 -16 11 -27
30 -20 38 -55 47 -55 14z" />
    <path d="M767 1413 c-3 -5 -10 -25 -15 -47 -13 -45 -2 -40 14 7 6 18 15 30 20
27 10 -6 10 -9 0 -60 -5 -25 -4 -31 3 -19 23 37 25 99 3 99 -12 0 -23 -3 -25
-7z" />
    <path d="M1150 1414 c-1 -28 140 -157 155 -142 3 3 -12 16 -33 30 -37 25 -77
63 -106 103 -9 11 -16 15 -16 9z" />
    <path d="M820 1384 c0 -13 3 -14 14 -5 12 10 21 2 51 -44 40 -59 65 -79 93
-72 13 4 12 5 -4 6 -23 1 -49 27 -89 89 -28 42 -65 57 -65 26z" />
    <path d="M616 1375 c-7 -19 3 -47 15 -39 12 7 12 54 0 54 -5 0 -11 -7 -15 -15z" />
    <path d="M677 1370 c-9 -14 -17 -34 -16 -45 0 -18 2 -17 12 5 6 14 15 28 20
31 5 4 7 13 5 20 -3 8 -10 5 -21 -11z" />
    <path d="M1490 1382 c0 -39 75 -122 110 -121 22 1 21 2 -8 12 -25 8 -41 24
-64 64 -29 51 -38 62 -38 45z" />
    <path d="M1877 1373 c-4 -3 10 -12 30 -19 47 -16 55 -11 14 10 -34 18 -35 18
-44 9z" />
    <path d="M570 1278 c-45 -101 -62 -165 -44 -172 10 -4 13 -14 9 -33 -6 -25 -5
-26 6 -9 6 10 9 35 6 58 -5 39 9 96 47 181 9 20 14 37 11 37 -4 0 -19 -28 -35
-62z" />
    <path d="M1467 1333 c-4 -3 -7 -11 -7 -16 0 -6 3 -7 7 -4 13 14 36 -33 23 -48
-13 -16 -7 -45 9 -45 5 0 7 8 4 19 -3 10 0 22 6 25 6 4 3 19 -10 41 -23 38
-23 38 -32 28z" />
    <path d="M1120 1305 c0 -14 31 -77 35 -73 6 5 -22 78 -30 78 -3 0 -5 -2 -5 -5z" />
    <path d="M1393 1297 c4 -10 10 -24 14 -34 5 -14 1 -15 -32 -10 -27 4 -35 3
-28 -4 6 -6 26 -13 45 -14 18 -2 35 -3 37 -4 2 -1 -4 -11 -15 -22 -13 -15 -14
-20 -5 -17 23 7 38 37 24 46 -6 4 -15 20 -18 35 -4 15 -12 30 -18 34 -6 4 -8
0 -4 -10z" />
    <path d="M737 1280 c-12 -39 -47 -57 -64 -34 -10 13 -13 14 -13 3 0 -30 16
-42 40 -29 34 18 38 1 5 -26 -33 -26 -27 -33 9 -9 21 14 24 13 45 -16 15 -20
29 -29 44 -27 22 3 38 38 18 38 -6 0 -11 -7 -11 -15 0 -19 -14 -19 -34 1 -18
17 -24 40 -29 99 -2 36 -4 37 -10 15z" />
    <path d="M1090 1269 c20 -68 64 -102 78 -59 5 13 3 13 -11 2 -16 -14 -57 32
-57 65 0 6 -4 14 -9 18 -6 3 -6 -7 -1 -26z" />
    <path d="M1732 1284 c-42 -29 -21 -64 27 -44 24 9 36 7 82 -14 29 -13 58 -22
63 -18 6 3 3 7 -4 10 -8 2 -37 12 -63 23 -32 13 -59 18 -78 14 -35 -8 -38 6
-6 28 12 9 17 16 12 16 -6 1 -21 -6 -33 -15z" />
    <path d="M2104 1285 c-4 -9 -20 -15 -43 -16 -36 -1 -36 -1 -9 -12 26 -10 41
-39 64 -116 3 -8 7 -12 9 -9 3 3 -4 30 -14 61 -21 61 -18 76 12 50 19 -18 20
-17 6 7 -7 14 -12 31 -11 38 4 17 -7 15 -14 -3z" />
    <path d="M2323 1286 c4 -9 14 -42 23 -72 9 -31 18 -53 21 -51 7 8 -28 127 -40
134 -6 4 -8 0 -4 -11z" />
    <path d="M2380 1297 c0 -14 111 -229 116 -224 3 3 -17 49 -45 103 -52 103 -71
134 -71 121z" />
    <path d="M1240 1260 c44 -35 159 -83 146 -62 -3 6 -19 13 -35 17 -16 3 -50 19
-75 36 -53 33 -74 38 -36 9z" />
    <path d="M864 1256 c-27 -21 3 -55 32 -37 18 10 17 10 -3 11 -25 0 -29 10 -11
28 17 17 6 15 -18 -2z" />
    <path d="M1637 1251 c3 -12 1 -21 -6 -21 -6 0 -11 -7 -11 -15 0 -19 -20 -19
-48 1 -13 9 -25 14 -28 11 -3 -3 12 -15 32 -28 37 -23 37 -23 61 7 24 30 27
54 6 61 -7 3 -9 -3 -6 -16z" />
    <path d="M1036 1251 c-4 -5 -1 -11 6 -13 7 -3 8 -10 4 -17 -9 -13 -62 -11
-101 3 -20 8 -20 7 -1 -8 41 -34 126 -16 126 26 0 19 -25 25 -34 9z" />
    <path d="M982 1133 c-5 -10 -6 -29 -1 -43 7 -23 7 -23 8 8 1 34 9 40 29 20 7
-7 12 -8 12 -2 0 30 -35 42 -48 17z" />
    <path d="M2405 1141 c-3 -5 -1 -12 5 -16 6 -3 20 -24 31 -47 11 -22 23 -38 25
-35 5 5 -43 107 -51 107 -2 0 -6 -4 -10 -9z" />
    <path d="M465 1123 c-20 -48 -63 -188 -60 -192 5 -5 6 -3 45 113 26 78 36 130
15 79z" />
    <path d="M631 1070 c17 -27 33 -50 35 -50 2 0 -7 23 -21 50 -14 28 -30 50 -35
50 -5 0 4 -22 21 -50z" />
    <path d="M2257 1104 c-14 -14 -8 -47 6 -35 10 8 17 7 26 -2 10 -10 12 -7 9 13
-3 24 -27 38 -41 24z" />
    <path d="M484 1058 c-4 -13 -8 -30 -9 -38 -1 -8 -5 -22 -8 -30 -32 -86 -39
-111 -34 -117 4 -3 9 3 12 13 3 10 17 42 30 69 14 28 24 59 23 70 0 11 3 28 7
38 4 10 3 17 -3 17 -6 0 -14 -10 -18 -22z" />
    <path d="M2374 1015 c0 -35 3 -62 8 -59 4 3 8 29 8 59 0 30 -4 56 -8 59 -5 3
-8 -24 -8 -59z" />
    <path d="M2511 1047 c-1 -12 51 -87 60 -87 13 0 11 8 -8 28 -10 9 -26 29 -35
42 -9 14 -17 22 -17 17z" />
    <path d="M978 1002 c-11 -74 37 -149 50 -77 3 16 1 18 -9 8 -23 -23 -28 -14
-31 50 -3 60 -3 61 -10 19z" />
    <path d="M2481 1017 c-1 -15 59 -96 79 -107 33 -18 32 -11 -7 28 -22 20 -46
48 -55 62 -9 14 -17 21 -17 17z" />
    <path d="M703 942 c10 -10 17 -26 17 -35 0 -9 5 -19 10 -22 7 -4 8 3 4 22 -8
32 -22 53 -37 53 -5 0 -3 -8 6 -18z" />
    <path d="M2365 910 c-4 -11 -17 -32 -31 -47 -24 -26 -33 -50 -14 -38 6 3 10 2
10 -4 0 -5 -8 -14 -17 -20 -10 -5 -14 -13 -10 -18 5 -4 17 3 27 17 21 27 26
45 10 35 -5 -3 -10 -2 -10 4 0 6 8 15 19 20 10 6 22 22 25 37 8 32 1 44 -9 14z" />
    <path d="M641 902 c-16 -30 -31 -72 -26 -72 8 0 47 82 42 87 -3 3 -10 -4 -16
-15z" />
    <path d="M2275 911 c-8 -7 -6 -41 3 -41 4 0 15 11 24 25 17 22 -7 36 -27 16z" />
    <path d="M2403 889 c-3 -12 -16 -42 -29 -67 -28 -54 -25 -67 4 -20 20 33 45
108 35 108 -3 0 -7 -10 -10 -21z" />
    <path d="M1370 880 c-13 -8 -12 -10 3 -10 20 0 22 -11 5 -29 -11 -11 -10 -13
4 -8 9 3 19 1 21 -6 2 -7 11 2 20 18 13 26 16 27 22 12 4 -10 0 -28 -10 -43
-18 -28 -15 -43 4 -20 36 43 25 114 -12 77 -8 -8 -15 -7 -27 4 -10 9 -20 11
-30 5z" />
    <path d="M2226 869 c-2 -8 -7 -27 -11 -44 -4 -16 -14 -38 -22 -47 -9 -10 -11
-18 -6 -18 17 0 30 22 43 69 10 38 7 74 -4 40z" />
    <path d="M1200 861 c0 -20 28 -62 35 -51 5 8 10 8 20 0 11 -9 14 -7 12 9 -1
15 -8 21 -24 21 -14 0 -23 6 -23 15 0 8 -4 15 -10 15 -5 0 -10 -4 -10 -9z" />
    <path d="M666 808 c-16 -27 -30 -68 -22 -68 3 0 12 16 20 35 15 35 36 47 36
21 0 -20 37 -62 46 -53 4 4 -2 14 -13 22 -11 8 -24 26 -27 40 -8 31 -21 32
-40 3z" />
    <path d="M580 770 c-20 -39 -22 -41 -35 -23 -17 21 -20 10 -4 -18 5 -11 14
-17 20 -14 13 9 52 86 45 92 -2 3 -14 -14 -26 -37z" />
    <path d="M2102 789 c-5 -13 -13 -35 -17 -49 -11 -38 10 -12 24 29 13 39 6 57
-7 20z" />
    <path d="M2140 774 c-17 -44 -6 -61 20 -29 9 11 10 15 1 15 -8 0 -10 8 -6 20
9 29 -4 24 -15 -6z" />
    <path d="M2247 762 c-10 -10 -17 -23 -17 -28 0 -5 7 0 15 10 12 16 17 17 30 6
22 -19 29 -6 7 13 -18 16 -20 16 -35 -1z" />
    <path d="M403 734 c-3 -8 -3 -35 0 -59 5 -36 3 -45 -11 -49 -9 -2 -6 -4 8 -3
21 2 24 6 22 27 -2 14 -3 42 -3 63 1 39 -6 48 -16 21z" />
    <path d="M633 705 c-9 -15 -14 -17 -26 -7 -11 10 -18 8 -32 -8 -19 -21 -7 -28
13 -8 9 9 12 9 12 0 0 -7 7 -12 15 -12 8 0 15 -4 15 -8 0 -13 51 -39 110 -56
67 -20 54 -5 -15 18 -60 20 -82 32 -72 42 6 6 48 -3 106 -23 11 -4 13 -3 6 4
-5 6 -33 18 -62 27 -31 11 -53 24 -55 34 -3 15 -5 15 -15 -3z" />
    <path d="M2010 694 c-25 -13 -34 -21 -20 -18 43 11 68 22 75 33 9 16 -4 12
-55 -15z" />
    <path d="M2128 690 c-20 -11 -40 -24 -43 -30 -9 -15 0 -12 38 10 34 20 34 20
29 -6 -7 -40 37 -29 61 16 19 35 19 35 -3 8 -27 -35 -44 -36 -36 -3 8 30 3 30
-46 5z" />
    <path d="M1880 649 c-83 -29 -83 -29 -78 -34 6 -6 129 34 143 46 14 13 -3 10
-65 -12z" />
    <path d="M1750 608 c-19 -5 -39 -14 -45 -20 -7 -7 -2 -8 15 -3 44 13 70 24 70
30 0 3 -1 5 -2 4 -2 0 -19 -5 -38 -11z" />
    <path d="M1838 592 c-66 -24 -72 -35 -8 -16 40 12 55 13 60 4 5 -9 9 -9 14 -1
19 31 -3 35 -66 13z" />
    <path d="M804 592 c4 -7 16 -12 26 -12 29 0 31 -14 9 -64 -21 -49 -4 -85 41
-85 11 0 10 3 -4 14 -18 13 -18 16 -4 32 9 10 23 33 32 51 12 22 22 32 32 28
9 -3 12 -1 9 4 -12 20 -35 9 -51 -22 -22 -45 -35 -59 -45 -52 -5 3 1 23 12 46
21 41 16 57 -18 58 -6 0 -19 3 -29 7 -12 4 -15 3 -10 -5z" />
    <path d="M1283 555 c-3 -9 2 -22 12 -29 17 -12 15 -14 -18 -20 -20 -4 -39 -12
-43 -18 -5 -8 -1 -9 11 -5 10 4 37 12 61 18 24 6 44 16 44 21 0 6 -6 8 -14 5
-13 -5 -36 10 -36 24 0 4 8 10 18 12 12 4 11 5 -6 6 -12 0 -25 -6 -29 -14z" />
    <path d="M1703 552 c-28 -10 -55 -20 -58 -24 -10 -10 109 22 120 33 12 12 1
10 -62 -9z" />
    <path d="M1857 513 c-16 -25 -26 -47 -23 -50 2 -3 16 16 31 42 15 25 26 48 23
50 -2 2 -16 -17 -31 -42z" />
    <path d="M1475 510 c-7 -12 32 -12 60 0 16 7 13 9 -17 9 -20 1 -40 -3 -43 -9z" />
    <path d="M1876 469 c-14 -23 -25 -44 -22 -46 2 -3 17 14 32 36 15 23 25 44 22
46 -2 3 -17 -14 -32 -36z" />
    <path d="M1251 454 c-19 -8 -32 -17 -29 -19 5 -6 78 22 78 30 0 8 -13 5 -49
-11z" />
    <path d="M1132 411 c-16 -10 6 -21 41 -21 20 0 20 0 1 15 -22 17 -25 17 -42 6z" />
    <path d="M1769 362 c-20 -15 -45 -32 -55 -39 -18 -12 -18 -12 1 -6 22 7 105
61 105 68 0 10 -16 3 -51 -23z" />
    <path d="M1913 253 c-12 -24 -18 -43 -13 -43 15 0 42 47 38 67 -2 13 -9 7 -25
-24z" />
    <path d="M1620 266 c0 -8 5 -18 10 -21 6 -3 10 1 10 11 0 14 2 15 17 3 14 -12
16 -12 11 1 -6 21 -48 26 -48 6z" />
    <path d="M1873 176 c-23 -6 -45 -15 -50 -20 -5 -5 0 -6 12 -2 11 4 42 10 68
13 26 3 50 9 52 13 7 11 -33 9 -82 -4z" />
  </g>
  <g transform="translate(0.000000,300.000000) scale(0.100000,-0.100000)" fill="#7d6454" stroke="none">
    <path d="M2092 2345 c8 -23 42 -85 47 -85 9 1 52 72 47 77 -2 2 -12 -9 -22
-26 -23 -39 -24 -39 -52 7 -13 20 -21 33 -20 27z" />
    <path d="M613 2320 c14 -11 37 -40 51 -65 33 -56 45 -60 14 -4 -28 49 -63 89
-79 89 -6 0 0 -9 14 -20z" />
    <path d="M442 2264 c32 -32 60 -55 63 -52 4 3 -15 26 -40 50 -72 66 -87 68
-23 2z" />
    <path d="M992 2279 c-29 -12 -52 -23 -50 -25 5 -4 94 29 104 39 10 10 6 9 -54
-14z" />
    <path d="M845 2206 c-11 -7 -22 -14 -25 -14 -18 -2 -58 -22 -69 -36 -24 -28
-1 -39 26 -11 14 14 41 34 59 46 19 11 34 23 34 25 0 7 -4 5 -25 -10z" />
    <path d="M2060 2205 c7 -8 16 -13 20 -10 5 3 10 0 12 -6 2 -7 11 -10 19 -7 9
3 4 10 -18 21 -40 21 -49 21 -33 2z" />
    <path d="M2050 2108 c-11 -18 -20 -37 -20 -42 0 -10 51 2 65 15 6 6 -1 6 -18
0 -16 -6 -30 -11 -33 -11 -9 0 26 58 38 63 10 4 10 6 0 6 -7 1 -21 -14 -32
-31z" />
    <path d="M678 2056 c-16 -24 -28 -50 -28 -58 0 -8 -9 -23 -19 -32 -20 -18 -66
-115 -58 -122 8 -9 38 47 31 58 -4 6 -3 8 3 5 15 -9 66 71 58 90 -7 19 42 96
55 88 6 -4 10 -1 10 4 0 25 -27 8 -52 -33z" />
    <path d="M2214 2029 c-3 -6 -19 -9 -35 -7 -16 3 -29 1 -29 -4 0 -4 14 -8 30
-8 28 0 29 -2 18 -20 -7 -11 -19 -18 -26 -15 -7 3 -10 0 -7 -5 11 -18 43 -10
50 13 16 51 16 73 -1 46z" />
    <path d="M622 1848 c-79 -127 -106 -194 -73 -183 36 11 43 -4 17 -38 -26 -35
-56 -91 -56 -104 0 -4 13 15 29 44 16 29 36 59 45 68 19 19 10 45 -15 45 -29
0 -13 51 41 130 31 47 62 100 57 100 -3 0 -23 -28 -45 -62z" />
    <path d="M2346 1897 c3 -8 15 -18 27 -22 20 -7 20 -8 -8 -15 -16 -4 -25 -8
-20 -9 6 -1 20 -4 33 -7 33 -9 28 20 -8 46 -20 15 -28 17 -24 7z" />
    <path d="M2536 1886 c6 -15 -37 -47 -66 -49 -10 -1 -17 -5 -14 -9 6 -9 54 9
76 29 19 17 24 43 8 43 -5 0 -7 -6 -4 -14z" />
    <path d="M2400 1760 c-6 -12 -9 -24 -7 -27 3 -2 8 5 12 16 11 34 28 25 22 -12
-10 -61 -38 -115 -47 -92 -8 18 -9 17 -9 -7 -1 -43 18 -33 41 20 34 75 23 167
-12 102z" />
    <path d="M2456 1621 c-3 -5 3 -11 14 -14 11 -3 29 -21 41 -41 28 -48 36 -46 9
2 -23 40 -56 67 -64 53z" />
    <path d="M662 1503 c-7 -2 -17 -14 -23 -26 -11 -21 -11 -21 14 2 32 29 53 20
31 -15 -12 -17 -13 -28 -6 -37 5 -6 12 -23 15 -37 4 -25 4 -25 5 0 1 14 -2 31
-7 39 -6 9 -4 22 6 37 22 34 4 53 -35 37z" />
    <path d="M2020 1497 c0 -19 31 -109 36 -104 2 2 -3 23 -11 47 -11 32 -12 46
-4 56 9 11 8 14 -5 14 -9 0 -16 -6 -16 -13z" />
    <path d="M1066 1434 c-5 -14 -4 -15 9 -4 11 9 22 9 45 2 16 -6 30 -7 30 -3 0
5 -14 11 -31 15 -44 8 -46 8 -53 -10z" />
    <path d="M557 1345 c-15 -30 -25 -55 -22 -55 7 0 57 101 53 106 -2 2 -16 -21
-31 -51z" />
    <path d="M1873 1373 c-8 -3 -12 -20 -12 -41 2 -37 2 -37 8 -2 5 30 10 35 31
32 20 -2 22 0 10 8 -16 11 -19 11 -37 3z" />
    <path d="M517 1258 c-38 -95 -47 -121 -39 -113 12 13 53 117 48 122 -2 2 -6
-2 -9 -9z" />
    <path d="M696 1235 c-23 -17 -14 -20 15 -5 16 9 19 7 19 -9 0 -10 -7 -22 -16
-25 -9 -4 -14 -9 -11 -13 4 -3 13 0 21 6 11 10 17 8 26 -6 11 -17 11 -17 6 0
-3 11 -9 30 -12 43 -7 27 -20 30 -48 9z" />
    <path d="M540 1196 c-12 -33 -13 -63 -1 -70 8 -5 23 85 15 93 -2 2 -8 -8 -14
-23z" />
    <path d="M1543 1163 c-7 -2 -13 -9 -13 -15 0 -6 6 -6 15 2 18 15 23 5 28 -65
3 -37 4 -34 3 14 -1 62 -7 75 -33 64z" />
    <path d="M2257 1124 c-14 -14 -8 -47 6 -35 10 8 17 7 26 -2 10 -10 12 -7 9 13
-3 24 -27 38 -41 24z" />
    <path d="M2572 1048 c-1 -31 -5 -65 -8 -75 -5 -14 -4 -15 5 -7 8 7 11 34 8 75
-3 64 -3 64 -5 7z" />
    <path d="M481 1039 c-13 -39 -14 -49 -1 -49 10 0 26 68 17 76 -2 3 -10 -9 -16
-27z" />
    <path d="M2474 1023 c21 -39 56 -89 56 -81 0 8 -62 108 -67 108 -2 0 3 -12 11
-27z" />
    <path d="M2323 913 c23 -6 22 -42 -3 -73 -23 -30 -27 -53 -4 -24 13 16 15 16
10 2 -3 -10 -3 -18 0 -18 9 0 46 91 40 97 -3 4 -6 0 -7 -8 0 -8 -4 -4 -9 9 -5
12 -17 21 -27 21 -17 -1 -17 -2 0 -6z" />
    <path d="M1389 878 c11 -15 11 -21 0 -35 -12 -14 -12 -16 0 -8 11 6 13 4 8 -8
-11 -28 1 -19 18 14 12 23 21 29 35 24 15 -5 18 -3 14 9 -8 20 -33 21 -41 1
-5 -14 -8 -14 -27 2 -19 16 -19 16 -7 1z" />
    <path d="M1217 823 c3 -7 10 -10 15 -7 6 4 33 10 62 14 51 8 51 8 -15 6 -49
-1 -65 -4 -62 -13z" />
    <path d="M2100 783 c-7 -21 -20 -47 -29 -57 -13 -16 -14 -18 -1 -14 15 5 55
96 46 105 -2 2 -10 -13 -16 -34z" />
    <path d="M745 792 c4 -13 1 -29 -5 -37 -10 -12 -9 -15 3 -15 25 0 29 17 12 47
-13 23 -15 24 -10 5z" />
    <path d="M632 688 c-14 -14 -5 -36 22 -50 20 -11 20 -10 4 9 -13 14 -15 22 -7
30 6 6 7 13 1 16 -5 4 -14 1 -20 -5z" />
    <path d="M1877 648 c-49 -16 -87 -32 -84 -34 5 -5 160 46 172 57 12 12 14 12
-88 -23z" />
    <path d="M2013 650 c-32 -13 -29 -22 3 -10 14 6 36 7 49 4 12 -3 26 -1 29 5 9
13 -49 14 -81 1z" />
    <path d="M1249 557 c19 -19 13 -26 -26 -30 -35 -3 -34 -4 10 -5 51 -2 71 29
26 41 -17 4 -19 3 -10 -6z" />
    <path d="M1910 521 c-14 -27 -12 -41 3 -16 11 19 12 17 18 -15 6 -35 6 -35 8
8 1 45 -11 55 -29 23z" />
    <path d="M821 477 c-6 -6 -11 -20 -10 -31 0 -18 2 -18 10 4 10 25 11 25 25 5
12 -17 27 -20 92 -21 45 -1 54 0 22 3 -79 5 -103 12 -97 27 7 18 -27 28 -42
13z" />
  </g>
  <g transform="translate(0.000000,300.000000) scale(0.100000,-0.100000)" fill="#dcccc3" stroke="none">
    <path d="M2244 2328 c-58 -54 -89 -111 -70 -128 10 -8 16 -8 21 0 4 6 3 10 -2
9 -21 -4 -22 4 -4 39 23 44 76 97 111 111 18 7 20 10 7 10 -9 1 -38 -18 -63
-41z" />
    <path d="M294 2296 c-3 -8 -4 -27 -1 -43 3 -23 4 -21 6 11 1 38 2 38 34 32 23
-4 28 -3 17 4 -22 14 -50 12 -56 -4z" />
    <path d="M455 2262 c55 -58 55 -58 55 -35 0 9 -3 13 -7 9 -4 -3 -27 13 -52 36
-46 43 -46 43 4 -10z" />
    <path d="M2212 2025 c-7 -8 -9 -15 -5 -15 4 0 2 -5 -5 -12 -15 -15 -16 -42 -2
-33 6 4 8 11 5 16 -4 5 4 13 17 18 13 6 18 10 11 10 -7 1 -10 8 -7 16 8 19 3
19 -14 0z" />
    <path d="M2291 1934 c-17 -14 -31 -30 -31 -34 0 -5 14 5 30 22 18 17 37 28 45
24 8 -3 15 -1 15 4 0 18 -28 10 -59 -16z" />
    <path d="M460 1649 c0 -6 9 -13 21 -16 20 -6 21 -10 4 -58 -3 -11 1 -7 10 8
19 33 15 51 -14 67 -16 8 -21 8 -21 -1z" />
    <path d="M2435 1190 c25 -49 47 -90 50 -90 3 0 -15 41 -40 90 -25 50 -47 90
-50 90 -3 0 15 -40 40 -90z" />
    <path d="M1055 1247 c17 -13 17 -15 -6 -30 -13 -10 -19 -17 -13 -17 14 0 44
33 44 48 0 7 -10 12 -22 12 -21 0 -21 -1 -3 -13z" />
    <path d="M548 1210 c-12 -39 -10 -86 3 -73 5 5 9 30 7 54 -3 37 -4 40 -10 19z" />
    <path d="M2265 1160 c-4 -7 -3 -15 2 -19 6 -3 15 -19 22 -36 11 -30 11 -30 6
9 -5 44 -19 64 -30 46z" />
    <path d="M872 881 c-7 -4 -24 -6 -37 -3 -21 4 -25 -1 -35 -39 -6 -24 -13 -52
-16 -61 -3 -10 -1 -18 4 -18 6 0 15 22 22 49 11 46 14 49 48 54 47 5 52 2 52
-34 0 -30 0 -30 53 -23 43 5 50 4 39 -7 -6 -7 -24 -13 -39 -14 -14 0 -28 -5
-30 -12 -7 -21 70 -6 89 18 26 31 12 42 -42 37 -46 -5 -48 -4 -57 26 -9 32
-28 42 -51 27z" />
    <path d="M1737 850 c-21 -17 -26 -18 -31 -5 -9 24 -41 17 -64 -15 -18 -24 -20
-30 -7 -30 8 0 15 6 15 14 0 20 27 27 55 14 20 -9 28 -8 45 7 19 17 50 15 50
-5 0 -5 5 -10 10 -10 15 0 12 16 -6 34 -21 21 -36 20 -67 -4z" />
    <path d="M1570 831 c0 -11 5 -23 10 -26 6 -3 10 1 10 9 0 10 6 13 16 9 12 -4
15 -2 12 8 -8 24 -48 24 -48 0z" />
    <path d="M830 790 c-14 -22 -30 -40 -37 -40 -7 0 -13 -4 -13 -10 0 -27 38 -4
68 40 19 30 27 50 19 50 -7 0 -23 -18 -37 -40z" />
    <path d="M1730 800 c-23 -33 -40 -39 -40 -15 0 24 -36 17 -54 -10 -20 -30 -36
-32 -36 -5 0 11 -4 20 -10 20 -5 0 -10 -6 -10 -14 0 -50 39 -62 67 -20 15 23
18 24 28 10 18 -24 37 -20 68 16 18 22 30 29 34 21 6 -15 43 -17 43 -3 0 6 -7
10 -15 10 -8 0 -15 5 -15 10 0 22 -40 8 -60 -20z" />
    <path d="M641 703 c-1 -14 -8 -23 -23 -25 -22 -3 -22 -3 4 -20 25 -16 26 -16
21 2 -4 15 0 20 13 20 12 0 15 3 8 8 -6 4 -14 14 -17 22 -4 10 -6 8 -6 -7z" />
    <path d="M2115 675 c-21 -15 -44 -24 -52 -21 -8 3 -11 1 -8 -4 9 -15 24 -12
52 10 14 11 30 20 34 20 5 0 9 -9 9 -20 0 -11 4 -20 8 -20 8 0 9 47 0 55 -3 3
-22 -6 -43 -20z" />
    <path d="M855 571 c3 -6 -5 -32 -18 -60 -14 -27 -19 -47 -13 -45 10 4 20 26
43 97 3 9 0 17 -6 17 -7 0 -10 -4 -6 -9z" />
    <path d="M1264 540 c0 -14 5 -18 17 -15 10 3 20 1 24 -5 8 -13 25 -13 25 0 0
6 -7 10 -15 10 -9 0 -18 7 -21 15 -9 22 -30 18 -30 -5z" />
  </g>
  <g transform="translate(0.000000,300.000000) scale(0.100000,-0.100000)" fill="#9d887a" stroke="none">
    <path d="M1533 1095 c0 -33 2 -45 4 -27 2 18 2 45 0 60 -2 15 -4 0 -4 -33z" />
    <path d="M2260 1132 c0 -10 7 -19 15 -19 8 0 15 9 15 19 0 10 -7 18 -15 18 -8
0 -15 -8 -15 -18z" />
    <path d="M2613 1020 c0 -47 2 -66 4 -42 2 23 2 61 0 85 -2 23 -4 4 -4 -43z" />
    <path d="M475 995 c-3 -8 -7 -22 -10 -31 -3 -8 -1 -12 4 -9 5 3 12 -7 14 -22
2 -16 5 -5 6 25 1 51 -5 67 -14 37z" />
    <path d="M1248 873 c18 -2 45 -2 60 0 15 2 0 4 -33 4 -33 0 -45 -2 -27 -4z" />
    <path d="M1933 415 c0 -33 2 -45 4 -27 2 18 2 45 0 60 -2 15 -4 0 -4 -33z" />
    <path d="M907 393 c18 -2 50 -2 70 0 21 2 7 4 -32 4 -38 0 -55 -2 -38 -4z" />
  </g>
  <g transform="translate(0.000000,300.000000) scale(0.100000,-0.100000)" fill="#bcab9f" stroke="none">
    <path d="M2133 1005 c0 -33 2 -45 4 -27 2 18 2 45 0 60 -2 15 -4 0 -4 -33z" />
    <path d="M1023 990 c0 -36 2 -50 4 -32 2 17 2 47 0 65 -2 17 -4 3 -4 -33z" />
  </g>
  <g transform="translate(0.000000,300.000000) scale(0.100000,-0.100000)" fill="#f38f88" stroke="none">
    <path d="M816 870 c-11 -19 -36 -122 -31 -130 10 -16 30 -1 55 40 30 48 36 49
44 10 7 -37 30 -48 55 -26 10 9 25 14 35 10 17 -7 56 20 56 39 0 5 -23 8 -54
5 -55 -5 -55 -5 -58 26 -3 29 -89 51 -102 26z" />
    <path d="M1650 833 c-21 -27 -21 -27 -36 -5 -26 38 -37 27 -31 -30 9 -71 22
-81 56 -40 30 35 41 40 41 18 0 -33 24 -28 56 10 32 38 34 38 48 19 22 -30 44
-6 28 30 -14 29 -46 33 -74 8 -17 -15 -19 -15 -36 0 -24 22 -27 22 -52 -10z" />
  </g>
</svg>